<svg width="80" height="88" viewBox="0 0 80 88" fill="none" xmlns="http://www.w3.org/2000/svg">
<path d="M77.2481 48.1541C75.6908 47.0052 73.3402 46.1621 70.0192 46.1621C64.068 46.1621 58.2704 49.9164 58.2704 58.6529C58.2704 67.0059 64.068 70.9139 69.7894 70.9139C75.7903 70.9139 79.5958 67.2094 79.5958 61.7939C79.5958 58.3719 77.4501 55.9964 73.1338 55.9964H71.8809C69.6342 55.9964 67.8969 57.0429 67.8969 59.3423C67.8969 61.4367 69.7864 62.4335 71.1915 62.4335C71.8809 62.4335 72.3625 62.6369 72.3625 63.1741C72.3625 63.8386 71.5457 64.2718 70.6763 64.2718C67.79 64.2718 65.8229 62.3047 65.8229 58.6529C65.8229 54.5913 68.5057 53.11 70.5739 53.11C73.1031 53.11 73.5114 54.3863 75.2751 54.3863C76.1723 54.3953 77.0364 54.0481 77.6779 53.4209C78.3194 52.7936 78.6859 51.9376 78.6971 51.0404C78.7073 50.478 78.5807 49.9215 78.3283 49.4187C78.0759 48.916 77.7053 48.482 77.2481 48.1541Z" fill="#D62300"/>
<path d="M43.2242 60.9728V66.4907C43.2242 68.9672 41.7942 70.9344 39.1626 70.9344C36.5309 70.9344 35.1024 68.9672 35.1024 66.4907V50.7038C35.1024 48.1746 36.5836 46.1577 39.265 46.1577C40.875 46.1577 42.2802 46.771 43.634 49.4012L47.1834 56.2979C47.3634 56.6565 47.5156 56.7838 47.7205 56.7838C48.0016 56.7838 48.1596 56.5789 48.1596 56.1193V50.6014C48.1596 48.1249 49.5896 46.1577 52.2198 46.1577C54.85 46.1577 56.2814 48.1249 56.2814 50.6014V66.3883C56.2814 68.9175 54.8002 70.9344 52.1188 70.9344C50.56 70.9344 49.1037 70.3211 47.7498 67.6909L44.2005 60.7942C44.0204 60.4356 43.8682 60.3083 43.6633 60.3083C43.3779 60.3024 43.2242 60.5132 43.2242 60.9728Z" fill="#D62300"/>
<path d="M8.40836 66.4132V62.7906C8.40836 62.4847 8.53717 62.2549 8.84746 62.2549C9.25582 62.2549 9.35827 62.6633 9.46073 62.8667C10.0462 64.2718 11.7587 67.2577 13.3423 69.0228C14.4152 70.1938 15.7442 70.9388 17.1478 70.9388C19.5233 70.9388 21.5153 68.8706 21.5153 66.6473C21.5153 65.2686 20.9299 64.247 19.8043 63.0204C18.3743 61.4631 16.6882 59.4184 16.075 58.4743C15.9252 58.2733 15.8363 58.0335 15.8188 57.7835C15.8188 57.5025 15.9725 57.299 16.2784 57.018C16.9941 56.3535 18.7564 54.6937 19.7268 53.1862C20.4688 52.0372 20.7747 50.9907 20.7747 50.1213C20.7747 47.8995 18.7564 46.1621 16.5594 46.1621C15.1558 46.1621 13.8268 46.9539 12.9325 48.4103C11.7323 50.3511 10.2979 52.5992 9.38169 53.4935C9.1519 53.7233 9.02456 53.7731 8.84599 53.7731C8.54009 53.7731 8.4069 53.5696 8.4069 53.2374V50.6789C8.4069 48.1746 6.92569 46.1577 4.24428 46.1577C1.538 46.1577 0.081665 48.1746 0.081665 50.6789V66.4132C0.081665 68.9175 1.54531 70.9344 4.24575 70.9344C6.92715 70.9344 8.40836 68.9175 8.40836 66.4132Z" fill="#D62300"/>
<path d="M77.4778 73.5146C78.9605 73.5146 79.6235 74.2304 79.6235 75.4818C79.6235 77.6773 77.6066 80.7436 73.6225 82.9918C66.982 86.746 55.5889 87.8218 39.8284 87.8218C24.0678 87.8218 12.6747 86.746 6.03123 82.9888C2.04718 80.7407 0.0302734 77.6758 0.0302734 75.4789C0.0302734 74.2274 0.69477 73.5117 2.17598 73.5117L77.4778 73.5146Z" fill="#FF8533"/>
<path d="M77.4791 24.7518H2.17733C0.696113 24.7518 0.0316162 23.9848 0.0316162 22.6061C0.0316162 14.4316 12.3175 0 39.8282 0C67.0843 0 79.6248 14.4316 79.6248 22.6061C79.6248 23.9848 78.9618 24.7518 77.4791 24.7518Z" fill="#FF8533"/>
<path d="M72.5994 34.9184C72.1604 34.9184 71.9613 34.6622 71.9613 34.3329V32.5941C71.9613 32.2618 72.1647 32.0086 72.5994 32.0086H72.9566C74.0294 32.0086 74.3617 32.7756 74.3617 33.4401C74.3617 34.0782 74.0294 34.9213 72.9566 34.9213L72.5994 34.9184ZM52.9061 28.992C51.8332 28.2002 50.3256 27.6133 48.076 27.6133C44.1242 27.6133 40.2601 30.2186 40.2601 36.2488C40.2601 42.0229 44.1168 44.7043 47.9238 44.7043C51.9327 44.7043 54.4619 42.1502 54.4619 38.4209C54.4619 36.0454 53.0319 34.4105 50.1705 34.4105H49.3552C47.8477 34.4105 46.6724 35.1262 46.6724 36.7347C46.6724 38.1647 47.9253 38.8556 48.8678 38.8556C49.3538 38.8556 49.6597 39.0019 49.6597 39.3664C49.6597 39.826 49.124 40.1319 48.5107 40.1319C46.5948 40.1319 45.2907 38.778 45.2907 36.2488C45.2907 33.4401 47.0793 32.4184 48.458 32.4184C50.1441 32.4184 50.4252 33.2864 51.6005 33.2864C51.9009 33.2852 52.1981 33.2248 52.4751 33.1085C52.752 32.9922 53.0033 32.8224 53.2145 32.6087C53.4257 32.3951 53.5926 32.1419 53.7057 31.8636C53.8188 31.5853 53.8758 31.2874 53.8735 30.987C53.8808 30.6018 53.797 30.2203 53.6288 29.8736C53.4607 29.5269 53.2131 29.2249 52.9061 28.992ZM62.9438 38.1618H61.1874C60.7483 38.1618 60.5492 38.4179 60.5492 38.7473V39.2317C60.5492 39.564 60.7527 39.8172 61.1874 39.8172H63.4868C64.9167 39.8172 66.0408 40.6602 66.0408 42.1663C66.0408 43.6988 64.9167 44.5418 63.4868 44.5418H58.6567C56.6398 44.5418 55.668 43.3709 55.668 41.7829V30.5128C55.668 28.9291 56.6398 27.7538 58.6567 27.7538H63.4868C64.9167 27.7538 66.0408 28.5969 66.0408 30.1044C66.0408 31.6369 64.9167 32.4799 63.4868 32.4799H61.1815C60.7424 32.4799 60.5434 32.7346 60.5434 33.0654V33.4752C60.5434 33.806 60.7468 34.0607 61.1815 34.0607H62.9379C64.1644 34.0607 65.1334 34.8013 65.1334 36.1098C65.1334 37.4183 64.1703 38.1618 62.9438 38.1618ZM67.1883 41.9175C67.1883 43.45 68.0826 44.6765 69.7175 44.6765C71.3524 44.6765 72.2467 43.45 72.2467 41.9175V39.2098C72.2467 38.8775 72.4004 38.7238 72.6551 38.7238C72.961 38.7238 73.0634 38.9024 73.1146 39.2098C73.3444 40.5124 73.9577 42.2747 74.6471 43.1689C75.5165 44.3179 76.3332 44.6765 77.1514 44.6765C78.4789 44.6765 79.6279 43.6285 79.6279 42.3259C79.6279 41.4579 79.2708 40.8183 78.8112 40.2314C77.9432 39.1322 77.4061 38.4179 77.0738 37.5236C76.9977 37.3187 77.0489 37.1402 77.2787 36.9616C78.0706 36.3483 78.9897 34.9945 78.9897 32.8488C78.9897 29.6053 76.3083 27.7655 73.0634 27.7655H70.1727C68.1558 27.7655 67.1839 28.9364 67.1839 30.5245L67.1883 41.9175ZM27.5703 41.9175C27.5703 43.45 28.4646 44.6765 30.0995 44.6765C31.7344 44.6765 32.6287 43.45 32.6287 41.9175V39.2098C32.6287 38.8775 32.775 38.7238 33.037 38.7238C33.3429 38.7238 33.4454 38.9024 33.4966 39.2098C33.7264 40.5124 34.3397 42.2747 35.029 43.1689C35.8985 44.3179 36.7152 44.6765 37.5333 44.6765C38.8609 44.6765 40.0098 43.6285 40.0098 42.3259C40.0098 41.4579 39.6527 40.8183 39.1931 40.2314C38.4525 39.261 37.788 38.4179 37.4558 37.5236C37.3797 37.3187 37.4309 37.1402 37.6607 36.9616C38.4525 36.3483 39.3717 34.9945 39.3717 32.8488C39.3717 29.6053 36.6903 27.7655 33.4454 27.7655H30.5547C28.5363 27.7655 27.5659 28.9364 27.5659 30.5245L27.5703 41.9175ZM32.9858 34.9184C32.5467 34.9184 32.3476 34.6622 32.3476 34.3329V32.5941C32.3476 32.2618 32.5511 32.0086 32.9858 32.0086H33.3429C34.4158 32.0086 34.748 32.7756 34.748 33.4401C34.748 34.0782 34.4158 34.9213 33.3429 34.9213L32.9858 34.9184ZM5.17646 37.5529H5.63605C6.86259 37.5529 7.21972 38.3711 7.21972 39.1117C7.21972 39.7762 6.86259 40.7217 5.63605 40.7217H5.16475C4.72566 40.7217 4.5266 40.467 4.5266 40.1363V38.1369C4.5266 37.8047 4.73005 37.5485 5.16475 37.5485L5.17646 37.5529ZM5.17646 34.488C4.73737 34.488 4.53831 34.2334 4.53831 33.9026V32.1594C4.53831 31.8271 4.74176 31.5739 5.17646 31.5739H5.50871C6.60645 31.5739 6.9387 32.3394 6.9387 33.0039C6.9387 33.6172 6.60645 34.4851 5.50871 34.4851L5.17646 34.488ZM3.01904 44.5477H6.61669C10.0138 44.5477 12.082 42.2746 12.082 39.4396C12.082 37.1665 10.7281 36.1185 10.4222 35.8639C10.2948 35.7614 10.166 35.659 10.166 35.5565C10.166 35.4292 10.2436 35.3779 10.371 35.2243C11.0224 34.4556 11.3679 33.4739 11.3414 32.4667C11.3414 29.4004 9.27322 27.7655 6.05465 27.7655H3.01904C1.00067 27.7655 0.0302734 28.9408 0.0302734 30.5245V41.7946C0.0302734 43.3738 1.00067 44.5477 3.01904 44.5477ZM19.5963 44.6765C15.4586 44.6765 13.288 42.1985 13.288 39.0824V30.4733C13.288 28.9408 14.1808 27.7143 15.8157 27.7143C17.4506 27.7143 18.3713 28.9408 18.3713 30.4733V38.8014C18.3713 39.4132 18.6772 40.1289 19.5963 40.1289C20.5155 40.1289 20.8741 39.4132 20.8741 38.8014V30.4733C20.8741 28.9408 21.7684 27.7143 23.4033 27.7143C25.0382 27.7143 25.9369 28.9408 25.9369 30.4733V39.0795C25.9369 42.1985 23.7414 44.6765 19.5963 44.6765Z" fill="#D62300"/>
<path d="M32.1385 50.9848C32.1385 48.3034 30.5812 46.1548 27.7198 46.1548C24.8583 46.1548 23.3025 48.3005 23.3025 50.9848V66.1072C23.3025 68.7887 24.8598 70.9373 27.7212 70.9373C30.5827 70.9373 32.14 68.7916 32.14 66.1072L32.1385 50.9848Z" fill="#D62300"/>
</svg>
